<svg width="500" height="500" viewBox="0 0 500 500" fill="none" xmlns="http://www.w3.org/2000/svg">
<path fill-rule="evenodd" clip-rule="evenodd" d="M49.9998 429.687V404.687C64.8317 404.687 76.3262 400.362 85.6941 393.039C95.2721 385.551 103.259 374.42 109.919 359.957C123.376 330.734 130.106 290.937 135.225 249.258C136.492 238.937 137.662 228.472 138.824 218.076C142.243 187.476 145.596 157.475 151.178 133.538C154.926 117.46 159.981 102.608 167.666 91.5443C175.707 79.9681 187.205 71.8749 202.707 71.8749C220.943 71.8749 233.183 82.9904 240.91 97.4414C248.38 111.413 252.699 130.15 255.568 150.368C258.471 170.829 260.051 194.134 261.394 217.895C261.705 223.409 262.004 228.946 262.303 234.489C263.103 249.308 263.904 264.166 264.958 278.722C286.461 280.983 301.671 289.513 313.442 301.852C323.609 312.51 331.165 326.214 338.048 338.699C339.766 341.814 341.442 344.854 343.106 347.751C351.896 363.053 361.418 376.812 376.768 387.034C392.015 397.188 414.321 404.687 450 404.687V431.25H317.667C303.225 431.25 290.944 426.467 280.945 417.877C271.206 409.51 264.167 398.009 258.906 385.214C249.701 362.83 244.944 333.948 241.985 303.814C227.599 305.728 218.896 311.456 212.158 318.831C207.666 323.749 203.762 329.734 199.724 336.843C197.731 340.352 195.78 344 193.705 347.879L193.64 347.999C191.567 351.876 189.377 355.966 187.041 360.079C177.638 376.637 165.343 394.548 143.72 408.021C122.137 421.469 92.5971 429.687 49.9998 429.687ZM267.156 304.25C270.058 332.492 274.468 357.325 282.027 375.706C286.404 386.351 291.511 393.996 297.236 398.914C302.7 403.608 309.2 406.25 317.667 406.25H360.586C341.75 392.977 330.434 375.882 321.428 360.202C319.219 356.358 317.189 352.692 315.255 349.201C308.585 337.158 303.066 327.194 295.352 319.108C288.619 312.049 280.15 306.522 267.156 304.25ZM239.906 278.883C219.279 281.366 204.821 289.797 193.701 301.969C187.353 308.917 182.371 316.775 177.985 324.497C175.834 328.285 173.754 332.173 171.729 335.958L171.597 336.206C169.505 340.116 167.459 343.936 165.302 347.733C156.737 362.816 146.962 376.545 130.499 386.803C127.365 388.755 123.941 390.611 120.179 392.337C124.93 385.588 129.04 378.203 132.627 370.414C147.905 337.235 154.939 293.828 160.038 252.305C161.408 241.153 162.638 230.157 163.835 219.455C167.201 189.362 170.307 161.591 175.525 139.215C179.051 124.092 183.241 112.943 188.198 105.807C192.8 99.1821 197.341 96.8749 202.707 96.8749C208.614 96.8749 213.794 99.7486 218.863 109.229C224.189 119.189 228.041 134.327 230.816 153.88C233.555 173.188 235.091 195.55 236.433 219.305C236.737 224.673 237.03 230.113 237.326 235.596C238.098 249.916 238.887 264.526 239.906 278.883Z" fill="white"/>
<path fill-rule="evenodd" clip-rule="evenodd" d="M64.8147 265.625H49.9998V240.625H64.8147V265.625ZM109.259 265.625H79.6295V240.625H109.259V265.625ZM153.704 265.625H124.074V240.625H153.704V265.625ZM198.148 265.625H168.518V240.625H198.148V265.625ZM242.592 265.625H212.963V240.625H242.592V265.625ZM287.037 265.625H257.407V240.625H287.037V265.625ZM331.481 265.625H301.852V240.625H331.481V265.625ZM375.926 265.625H346.296V240.625H375.926V265.625ZM420.37 265.625H390.741V240.625H420.37V265.625ZM450 265.625H435.185V240.625H450V265.625Z" fill="white"/>
</svg>
