<svg width="89" height="89" viewBox="0 0 89 89" fill="none" xmlns="http://www.w3.org/2000/svg">
<circle cx="44.5" cy="44.5" r="44.5" fill="black"/>
<path d="M28.9135 57.34C29.4439 58.8272 30.314 60.1702 31.4545 61.2621C32.5951 62.3541 33.9746 63.1648 35.4835 63.63L40.2035 65.14C42.9145 65.9176 45.7392 66.222 48.5535 66.04C49.1983 66.0166 49.8403 66.1363 50.4333 66.3905C51.0264 66.6446 51.5558 67.027 51.9835 67.51C53.3531 69.2217 55.1653 70.5255 57.2235 71.28L59.2235 72.36C59.4513 72.5271 59.727 72.6161 60.0095 72.6137C60.292 72.6113 60.5661 72.5176 60.791 72.3467C61.0159 72.1757 61.1795 71.9367 61.2575 71.6652C61.3354 71.3936 61.3235 71.1042 61.2235 70.84L59.8935 67.5C58.9942 65.2927 57.294 63.5067 55.1335 62.5L54.4835 62.17C57.0838 60.5858 59.1118 58.2145 60.2735 55.4L61.0135 53.61C61.1202 53.35 61.1438 53.0634 61.0809 52.7894C61.0181 52.5155 60.8719 52.2678 60.6625 52.0804C60.4531 51.8929 60.1908 51.7749 59.9117 51.7426C59.6325 51.7103 59.3502 51.7653 59.1035 51.9L55.9235 53.65C54.8416 54.2078 53.8841 54.9793 53.1089 55.9178C52.3337 56.8562 51.757 57.9422 51.4135 59.11C51.2574 59.7112 50.9599 60.2664 50.5458 60.7294C50.1318 61.1924 49.6131 61.5498 49.033 61.7719C48.4529 61.9939 47.8282 62.0742 47.2108 62.0061C46.5934 61.9379 46.0012 61.7233 45.4835 61.38L42.6135 59.47C41.9757 59.0595 41.4472 58.5001 41.0735 57.84C40.6444 57.0618 40.4483 56.1766 40.5085 55.29C40.5688 54.4034 40.883 53.5529 41.4135 52.84L43.6035 49.92C45.5168 47.3692 47.7827 45.1033 50.3335 43.19L52.3335 41.68C53.5525 40.7641 54.506 39.5406 55.0964 38.1348C55.6868 36.7291 55.8929 35.1916 55.6935 33.68C55.6769 33.5533 55.629 33.4327 55.5542 33.3291C55.4793 33.2255 55.3799 33.1422 55.2648 33.0866C55.1497 33.0311 55.0226 33.005 54.8949 33.0109C54.7673 33.0167 54.6431 33.0542 54.5335 33.12L53.4835 33.75C53.1262 33.9777 52.7914 34.2389 52.4835 34.53L50.6835 36.11C50.5512 36.2306 50.3889 36.3135 50.2135 36.35L49.7235 36.46C49.5108 36.5241 49.2827 36.5154 49.0754 36.4355C48.8681 36.3555 48.6933 36.2088 48.5787 36.0185C48.464 35.8281 48.416 35.605 48.4422 35.3844C48.4685 35.1638 48.5674 34.9581 48.7235 34.8L49.5835 33.8C50.2098 33.058 50.9408 32.4113 51.7535 31.88L55.0735 29.71L55.9035 29.18L56.1435 29.02C57.6362 28.0547 58.7327 26.5856 59.2335 24.88L60.5635 20.35C60.6581 20.0843 60.6874 19.7998 60.649 19.5204C60.6106 19.241 60.5056 18.9749 60.3429 18.7446C60.1802 18.5142 59.9645 18.3263 59.714 18.1968C59.4635 18.0672 59.1855 17.9997 58.9035 18C58.629 18.0008 58.3584 18.0659 58.1135 18.19L48.4835 23C44.4809 25.0013 40.8273 27.6351 37.6635 30.8L34.1435 34.32C33.1569 35.4383 31.8952 36.2794 30.4835 36.76L29.2335 37.16C27.4164 37.7491 25.6999 38.6124 24.1435 39.72C22.7224 40.7304 21.447 41.9317 20.3535 43.29C20.1635 43.5345 20.0448 43.8267 20.0104 44.1345C19.976 44.4422 20.0274 44.7535 20.1588 45.0339C20.2902 45.3142 20.4965 45.5529 20.755 45.7234C21.0135 45.8939 21.314 45.9896 21.6235 46H24.9435C25.3288 45.9957 25.7106 46.0722 26.0645 46.2244C26.4184 46.3766 26.7366 46.6013 26.9984 46.8839C27.2603 47.1664 27.4601 47.5007 27.585 47.8652C27.7099 48.2296 27.757 48.6162 27.7235 49C27.582 51.8306 27.986 54.662 28.9135 57.34V57.34Z" fill="white"/>
<path d="M47.2135 48.24L45.3535 50.56C45.2085 50.7417 45.1214 50.9628 45.1036 51.1946C45.0858 51.4264 45.138 51.6582 45.2535 51.86L46.3835 53.86C46.4522 53.981 46.5091 54.1082 46.5535 54.24L46.6435 54.52C46.7141 54.7232 46.8438 54.9008 47.016 55.0298C47.1881 55.1589 47.3949 55.2336 47.6098 55.2443C47.8247 55.2551 48.0379 55.2014 48.2221 55.0901C48.4063 54.9789 48.553 54.8152 48.6435 54.62L48.9835 53.84C49.2449 53.246 49.3799 52.604 49.3799 51.955C49.3799 51.306 49.2449 50.664 48.9835 50.07L48.2435 48.37C48.1966 48.2792 48.1283 48.2012 48.0446 48.1427C47.9608 48.0842 47.8641 48.0469 47.7627 48.0341C47.6613 48.0214 47.5584 48.0334 47.4627 48.0693C47.367 48.1051 47.2815 48.1637 47.2135 48.24V48.24Z" fill="white"/>
</svg>
